<svg width="20" height="19" viewBox="0 0 20 19" fill="none" xmlns="http://www.w3.org/2000/svg">
<path fill-rule="evenodd" clip-rule="evenodd" d="M14.468 0.0105307C15.968 0.0105307 17.3937 0.638047 18.383 1.6169C19.3723 2.59553 20 4.02102 19.9998 5.52122C19.9998 6.0105 19.9498 6.48984 19.8509 6.95736C19.6523 7.89422 19.4115 8.56145 18.8616 9.40413C18.5925 9.81671 18.3537 10.1615 18.1276 10.4465C17.9068 10.7252 17.5957 11.0636 17.2021 11.4574C16.8084 11.8509 16.4892 12.1594 16.2446 12.3829C16.1231 12.4936 15.9724 12.6248 15.7958 12.7784C15.6164 12.9346 15.4101 13.114 15.1807 13.319C14.4444 13.9763 13.8748 14.4919 13.4785 14.8614C13.0875 15.2261 12.5981 15.7361 12.0103 16.3933C11.4279 17.0447 10.9303 17.7051 10.4997 18.3508C10.3769 18.5351 10.202 18.6168 9.99974 18.6168C9.80843 18.6168 9.6466 18.5333 9.52111 18.3508C8.84863 17.3735 8.13827 16.5208 7.1701 15.5956C6.69147 15.138 6.32696 14.7899 6.07438 14.5636C6.02983 14.5237 5.981 14.4799 5.92779 14.4321C5.67275 14.203 5.31713 13.8836 4.85088 13.4786C4.36134 13.0533 3.98912 12.7233 3.74448 12.4997C3.49984 12.2764 3.16484 11.9628 2.7552 11.5636C2.34575 11.1648 2.04255 10.819 1.82967 10.5423C1.61703 10.2659 1.36853 9.91726 1.09572 9.49991C0.826111 9.08729 0.623431 8.6822 0.489314 8.30841C0.219216 7.55445 0 6.55292 0 5.52118C0 4.02102 0.627745 2.59553 1.61706 1.61687C2.60657 0.638047 4.03206 0.010498 5.53199 0.010498C6.41484 0.010498 7.24458 0.212524 8.04255 0.616936C8.84049 1.02115 9.48938 1.57422 10 2.27641C10.5107 1.57422 11.1595 1.02115 11.9575 0.616969C12.7552 0.212524 13.585 0.0105307 14.468 0.0105307ZM16.8723 10.0849C17.9018 8.94429 18.5184 7.78661 18.7233 6.60622C18.7844 6.25468 18.8191 5.89337 18.8195 5.52119C18.8195 4.31903 18.394 3.29775 17.5429 2.45733C16.6918 1.6169 15.6705 1.19138 14.4683 1.19138C13.6279 1.19138 12.8407 1.41468 12.128 1.87223C11.4154 2.32952 10.9022 2.93981 10.543 3.69125C10.434 3.9189 10.245 4.02102 10.0003 4.02102C9.7557 4.02102 9.58184 3.91138 9.47903 3.69125C9.12429 2.93256 8.57485 2.32952 7.862 1.87223C7.14913 1.41468 6.37249 1.19138 5.5321 1.19138C4.33017 1.19138 3.30887 1.61694 2.44713 2.46798C1.59606 3.30841 1.17053 4.32968 1.17053 5.52119C1.17053 6.1487 1.22615 6.71517 1.40452 7.26576L1.64919 8.02106C1.77132 8.39856 2.06808 8.83694 2.30577 9.18807C2.36045 9.26885 2.41201 9.34501 2.45759 9.41475C2.57563 9.59501 2.7556 9.81896 2.98958 10.0743C3.03998 10.1293 3.08828 10.1819 3.13444 10.2323C3.30261 10.4156 3.44257 10.5682 3.55331 10.6914C3.69926 10.8534 3.92259 11.067 4.21285 11.3296L4.88305 11.936L5.617 12.5849C6.30606 13.194 6.80851 13.6382 7.13828 13.9359C7.46805 14.2339 7.91217 14.6833 8.48932 15.2763C9.06102 15.8641 9.5637 16.4361 9.99991 16.9998C10.4148 16.4253 10.9014 15.8375 11.4574 15.2445C12.0184 14.6461 12.4894 14.1704 12.8722 13.8191C13.266 13.4575 13.7685 13.0027 14.3935 12.4466C15.5982 11.375 16.423 10.5827 16.8723 10.0849Z" fill="white"/>
</svg>
